<svg xmlns="http://www.w3.org/2000/svg" viewBox="0 0 107.99 24.5"><defs><style>.cls-1{fill:#2b2655;}</style></defs><title>novo-purple</title><g id="Layer_2" data-name="Layer 2"><g id="Layer_1-2" data-name="Layer 1"><path class="cls-1" d="M41.34,0C48.26,0,53.5,4.68,53.5,12.25S48.26,24.5,41.34,24.5,29.18,19.82,29.18,12.25,34.42,0,41.34,0Zm0,19.36c3.65,0,6.26-2.62,6.26-7.11S45,5.14,41.34,5.14s-6.27,2.62-6.27,7.11S37.69,19.36,41.34,19.36Z"/><path class="cls-1" d="M62.61.65l5.75,18.24h.46L74.58.65h6.36l-8,23.2h-8.7l-8-23.2Z"/><path class="cls-1" d="M95.84,0C102.76,0,108,4.68,108,12.25S102.76,24.5,95.84,24.5,83.68,19.82,83.68,12.25,88.92,0,95.84,0Zm0,19.36c3.64,0,6.26-2.62,6.26-7.11s-2.62-7.11-6.26-7.11-6.27,2.62-6.27,7.11S92.19,19.36,95.84,19.36Z"/><path class="cls-1" d="M24.31,12.25C24.31,4.68,19.08,0,12.16,0S0,4.68,0,12.25V24H5.89V12.25h0c0-4.49,2.62-7.11,6.27-7.11s6.25,2.61,6.26,7.08h0V24h5.9V12.25Z"/></g></g></svg>