<svg xmlns="http://www.w3.org/2000/svg" viewBox="0 0 40 39.9"><defs><style>.cls-1{fill:#edfcfc;}</style></defs><title>novo-reverse_1</title><g id="Layer_2" data-name="Layer 2"><g id="Layer_1-2" data-name="Layer 1"><path class="cls-1" d="M32,0a7.6,7.6,0,0,1,8,8,7.6,7.6,0,0,1-8,8,7.6,7.6,0,0,1-8-8A7.6,7.6,0,0,1,32,0Z"/><path class="cls-1" d="M28.06,39.36H24l5.15-15h5.61l5.16,15H28.06Z"/><path class="cls-1" d="M8,39.9a7.6,7.6,0,0,1-8-8,7.6,7.6,0,0,1,8-8,7.6,7.6,0,0,1,8,8A7.6,7.6,0,0,1,8,39.9Z"/><path class="cls-1" d="M12.06,15.76h3.86V8.08h0a7.6,7.6,0,0,0-8-8,7.6,7.6,0,0,0-8,8v7.67H12.06Z"/></g></g></svg>